# xmcd CD database file
#
# Track frame offsets:
#	182
#	15945
#	30107
#	44225
#	59125
#	72150
#	87530
#	99702
#	115407
#	128375
#
# Disc length: 1837 seconds
#
# Revision: 1
# Processed by: cddbd v1.5.2PL0 Copyright (c) Steve Scherf et al.
# Submitted via: CDex 1.79
#
DISCID=83072b0a
DTITLE=Jeff Chance - Picture On The Wall
DYEAR=1991
DGENRE=Country
TTITLE0=Strangers On The Street
TTITLE1=Talkin' To Our Picture
TTITLE2=Thirty Days In Twenty Years
TTITLE3=It Sure Is Cold In Here Tonight
TTITLE4=So Far Not So Good
TTITLE5=Let It Burn
TTITLE6=She Meant Forever When She Said Goodbye
TTITLE7=I Can't Put My Arms Around A Memory
TTITLE8=Hopelessly Falling
TTITLE9=She Loves Me
EXTD=YEAR: 1991
EXTT0=
EXTT1=
EXTT2=
EXTT3=
EXTT4=
EXTT5=
EXTT6=
EXTT7=
EXTT8=
EXTT9=
PLAYORDER=
